<?xml version="1.0" encoding="UTF-8" standalone="no"?>
<svg
   version="1.1"
   x="0px"
   y="0px"
   viewBox="0 0 65 65"
   enable-background="new 0 0 208 176"
   xml:space="preserve"
   id="svg5325"
   width="65"
   height="65"
   sodipodi:docname="top.svg"
   xmlns:inkscape="http://www.inkscape.org/namespaces/inkscape"
   xmlns:sodipodi="http://sodipodi.sourceforge.net/DTD/sodipodi-0.dtd"
   xmlns="http://www.w3.org/2000/svg"
   xmlns:svg="http://www.w3.org/2000/svg"><sodipodi:namedview
     id="namedview20"
     pagecolor="#ffffff"
     bordercolor="#000000"
     borderopacity="0.25"
     inkscape:showpageshadow="2"
     inkscape:pageopacity="0.0"
     inkscape:pagecheckerboard="0"
     inkscape:deskcolor="#d1d1d1"
     showgrid="false" /><defs
     id="defs5329" /><g
     id="g5319"
     inkscape:transform-center-x="0.11213314"
     inkscape:transform-center-y="7.4323941"
     transform="rotate(180,32.46653,34.772363)"><g
       id="g5488"
       transform="translate(0.73791504,21.5)"><g
         id="g312"
         transform="matrix(0.31038462,0,0,0.30734964,-0.33810397,-15.150559)"
         style="stroke-width:3.23768"><g
           id="g326"
           transform="matrix(1.1292062,0,0,1.1310995,-13.109157,-7.6413373)"
           style="stroke-width:2.86482"><circle
             cx="103.26172"
             cy="88.5"
             r="10.901367"
             id="circle5283"
             style="fill:#cb99c9;fill-opacity:1;stroke:#cb99c9;stroke-width:2.86482;stroke-opacity:1" /><path
             d="m 130.84863,103.77539 -5.15918,-5.167968 c 0.20996,-0.453125 0.3916,-0.927735 0.57813,-1.396485 h 7.30664 c 2.35937,0 4.26953,-1.913086 4.26953,-4.277343 V 84.0625 c 0,-2.363281 -1.91016,-4.276367 -4.26953,-4.276367 h -7.30664 c -0.1836,-0.470215 -0.36817,-0.941406 -0.57813,-1.401367 l 5.15918,-5.164063 c 1.67285,-1.658691 1.67285,-4.368164 0,-6.039551 l -6.2666,-6.272461 c -1.67383,-1.673339 -4.37598,-1.673339 -6.04785,0 l -5.16309,5.164063 c -0.46093,-0.208496 -0.92578,-0.400391 -1.40332,-0.575684 v -7.315429 c 0,-2.353028 -1.91113,-4.262696 -4.26757,-4.262696 h -8.879399 c -2.358399,0 -4.269532,1.909668 -4.269532,4.262696 v 7.315429 c -0.472656,0.177735 -0.937988,0.367188 -1.402343,0.574707 l -5.163575,-5.163086 c -1.666015,-1.673339 -4.368652,-1.673339 -6.041015,0 l -6.272949,6.272461 c -1.665528,1.671387 -1.665528,4.380371 0,6.039551 l 5.16455,5.164063 c -0.208496,0.458984 -0.398437,0.931152 -0.577148,1.401367 h -7.313477 c -2.353515,0 -4.264648,1.913086 -4.264648,4.276367 v 8.871094 c 0,2.364258 1.91211,4.277344 4.264648,4.277344 h 7.313477 c 0.178711,0.472656 0.368652,0.943359 0.570801,1.396484 l -5.164063,5.167968 c -1.665039,1.66211 -1.665039,4.36914 0.0059,6.04199 l 6.272949,6.27344 c 1.672363,1.67383 4.368164,1.67383 6.041016,0 l 5.164062,-5.16016 c 0.459473,0.20313 0.931152,0.39356 1.401856,0.57129 v 7.31348 c 0,2.35645 1.912597,4.26465 4.270996,4.26465 h 8.875974 c 2.3584,0 4.26953,-1.9082 4.26953,-4.26465 v -7.31348 c 0.47754,-0.17578 0.94239,-0.36816 1.40918,-0.57129 l 5.16309,5.16016 c 1.66601,1.67383 4.36816,1.67383 6.04199,0 l 6.2666,-6.27344 c 1.67774,-1.67285 1.67774,-4.37304 0,-6.04199 z m -27.58691,3.38672 c -10.306642,0 -18.661134,-8.356446 -18.661134,-18.66211 0,-10.307617 8.354492,-18.663574 18.661134,-18.663574 10.30762,0 18.66308,8.355957 18.66308,18.663574 0,10.305664 -8.35546,18.66211 -18.66308,18.66211 z"
             id="path5285"
             style="fill:#cb99c9;fill-opacity:1;stroke:#cb99c9;stroke-width:2.86482;stroke-opacity:1" /><path
             d="m 100.52832,38.728516 v 9.488769 c 0,1.429688 1.15918,2.588867 2.58887,2.588867 1.42969,0 2.58886,-1.159179 2.58886,-2.588867 v -9.488769 c 0,-1.429688 -1.15917,-2.588868 -2.58886,-2.588868 -1.42969,0 -2.58887,1.15918 -2.58887,2.588868 z"
             id="path5289"
             style="fill:#cb99c9;fill-opacity:1;stroke:#cb99c9;stroke-width:5.72963;stroke-dasharray:none;stroke-opacity:1" /><path
             d="m 143.54395,85.766602 c -1.42872,0 -2.5879,1.159179 -2.5879,2.588867 0,1.429687 1.15918,2.58789 2.5879,2.58789 h 9.48925 c 1.42969,0 2.58789,-1.158203 2.58789,-2.58789 0,-1.429688 -1.1582,-2.588867 -2.58789,-2.588867 z"
             id="path5297"
             style="fill:#cb99c9;fill-opacity:1;stroke:#cb99c9;stroke-width:5.72963;stroke-dasharray:none;stroke-opacity:1" /><path
             d="m 62.979981,86.055176 h -9.48877 c -1.429199,0 -2.588867,1.159668 -2.588867,2.589355 0,1.428711 1.159668,2.588867 2.588867,2.588867 h 9.48877 c 1.429687,0 2.588867,-1.160156 2.588867,-2.588867 0,-1.429687 -1.15918,-2.589355 -2.588867,-2.589355 z"
             id="path5301"
             style="fill:#cb99c9;fill-opacity:1;stroke:#cb99c9;stroke-width:5.72963;stroke-dasharray:none;stroke-opacity:1" /><path
             d="m 131.64453,62.50293 c 0.66309,0 1.3252,-0.25293 1.83106,-0.758789 l 6.70898,-6.709961 c 1.00977,-1.010743 1.00977,-2.649903 -9.8e-4,-3.661133 -1.00976,-1.011231 -2.64941,-1.010254 -3.66113,0 l -6.70801,6.710449 c -1.01172,1.010742 -1.01172,2.649414 0,3.660645 0.50489,0.505859 1.167,0.758789 1.83008,0.758789 z"
             id="path5305"
             style="fill:#cb99c9;fill-opacity:1;stroke:#cb99c9;stroke-width:5.72963;stroke-dasharray:none;stroke-opacity:1" /><path
             d="m 66.135742,55.238281 6.709473,6.709961 c 0.505859,0.504883 1.167969,0.757813 1.830566,0.757813 0.663574,0 1.325684,-0.25293 1.831055,-0.757813 1.010742,-1.010742 1.010742,-2.649902 0,-3.661133 l -6.709961,-6.708984 c -1.010742,-1.01123 -2.649902,-1.01123 -3.661133,0 -1.010742,1.010742 -1.010742,2.649902 0,3.660156 z"
             id="path5317"
             style="fill:#cb99c9;fill-opacity:1;stroke:#cb99c9;stroke-width:5.72963;stroke-dasharray:none;stroke-opacity:1" /><path
             d="m 96.934215,11.190353 -6.32787,10.657104 6.32787,10.657105 h 12.655735 l 6.32787,-10.657105 -6.32787,-10.657104 z m 10.936045,18.41865 h -9.217845 l -4.60817,-7.761546 4.60966,-7.761546 h 9.217845 l 4.60817,7.761546 z"
             id="path8919"
             style="fill:#cb99c9;fill-opacity:1;stroke:#cb99c9;stroke-width:5.72963;stroke-miterlimit:3.9;stroke-dasharray:none;stroke-opacity:1" /><path
             d="m 153.45943,28.361661 -11.81313,3.750428 -2.36179,12.167076 9.45133,8.416641 11.81313,-3.750428 2.36179,-12.167076 z m -4.08218,21.028062 -6.88391,-6.130287 1.72039,-8.860986 8.60429,-2.730707 6.88391,6.130287 -1.72039,8.860986 z"
             id="path8919-4"
             style="fill:#cb99c9;fill-opacity:1;stroke:#cb99c9;stroke-width:5.72963;stroke-miterlimit:3.9;stroke-dasharray:none;stroke-opacity:1" /><path
             d="m 181.39687,81.774403 -10.67642,-6.295224 -10.63768,6.360459 0.0387,12.65567 10.67642,6.295222 10.63768,-6.360457 z m -18.38509,10.992361 -0.0282,-9.2178 7.7474,-4.631903 7.77562,4.585885 0.0282,9.2178 -7.7474,4.631903 z"
             id="path8919-4-7"
             style="fill:#cb99c9;fill-opacity:1;stroke:#cb99c9;stroke-width:5.72963;stroke-miterlimit:3.9;stroke-dasharray:none;stroke-opacity:1" /><path
             d="m 46.719893,82.097791 -10.67642,-6.295224 -10.63768,6.360459 0.0387,12.65567 10.67642,6.295224 10.63768,-6.360459 z m -18.38509,10.992361 -0.0282,-9.2178 7.7474,-4.631903 7.77562,4.585885 0.0282,9.2178 -7.7474,4.631903 z"
             id="path8919-4-7-8"
             style="fill:#cb99c9;fill-opacity:1;stroke:#cb99c9;stroke-width:5.72963;stroke-miterlimit:3.9;stroke-dasharray:none;stroke-opacity:1" /><path
             d="m 50.103043,30.577383 -8.029969,9.441155 4.445523,11.569492 12.47549,2.128336 8.02997,-9.441156 -4.445524,-11.569491 z m 7.682797,19.99546 -9.086563,-1.550181 -3.237267,-8.425967 5.84928,-6.87579 9.086563,1.550181 3.237267,8.425967 z"
             id="path8919-6"
             style="fill:#cb99c9;fill-opacity:1;stroke:#cb99c9;stroke-width:5.72963;stroke-miterlimit:3.9;stroke-dasharray:none;stroke-opacity:1" /></g></g></g></g></svg>
