<?xml version="1.0" encoding="UTF-8" standalone="no"?>
<svg
   version="1.1"
   x="0px"
   y="0px"
   viewBox="0 0 64 64"
   xml:space="preserve"
   id="svg10298"
   width="64"
   height="64"
   xmlns="http://www.w3.org/2000/svg"
   xmlns:svg="http://www.w3.org/2000/svg"><defs
     id="defs10302" /><g
     id="g10292"
     transform="matrix(0.53709913,0,0,0.53709913,5.1450429,5.1450434)"
     style="fill:#ffb6c1;fill-opacity:1;stroke:none;stroke-width:1.86186;stroke-opacity:1"><g
       id="g10290"
       style="fill:#ffb6c1;fill-opacity:1;stroke:none;stroke-width:2.10884;stroke-opacity:1"><path
         d="m 73.49366,23.864157 c -5.522865,0 -11.343712,2.505869 -18.31863,7.886146 -2.088135,1.610796 -3.968136,3.250185 -5.294319,4.455126 -1.325993,-1.204941 -3.206185,-2.84433 -5.294316,-4.455126 -6.974735,-5.380277 -12.795589,-7.886146 -18.318636,-7.886146 -13.024135,0 -23.6201931,10.596059 -23.6201931,23.620378 0,13.024319 10.5960581,23.620194 23.6201931,23.620194 5.523234,0 11.344088,-2.505875 18.318636,-7.886151 2.142716,-1.652759 4.013253,-3.282676 5.298958,-4.450298 1.323948,1.2029 3.200424,2.83894 5.289677,4.450298 6.974918,5.380276 12.795765,7.886151 18.31863,7.886151 13.024139,0 23.620194,-10.595871 23.620194,-23.620194 0,-13.024322 -10.596055,-23.62038 -23.620194,-23.620378 z m 0,41.670732 c -4.227692,0 -8.96743,-2.137516 -14.916763,-6.726322 -1.814835,-1.399887 -3.454411,-2.816483 -4.666596,-3.908726 l 3.64119,-3.568966 c 1.081657,0.965809 2.523876,2.201199 4.136162,3.444943 4.942672,3.812923 8.804428,5.666382 11.806007,5.666382 7.144806,0 12.957489,-5.812867 12.957489,-12.957669 0,-7.144615 -5.812683,-12.957481 -12.957489,-12.957481 -3.001579,0 -6.863335,1.853268 -11.806007,5.666191 -3.388504,2.613743 -6.029164,5.194061 -6.14,5.302673 l -1.87e-4,3.7e-4 -7.768436,7.614342 c -0.300026,0.29409 -3.033703,2.951458 -6.594502,5.698128 -5.949142,4.589172 -10.689071,6.726326 -14.916763,6.726326 -9.952928,0 -18.0503577,-8.097248 -18.0503577,-18.050358 0,-9.95311 8.0974287,-18.050545 18.0503577,-18.050545 4.227692,0 8.967621,2.137331 14.916763,6.726322 1.812054,1.397847 3.453484,2.816109 4.667527,3.910027 l -3.641377,3.568035 C 41.12883,42.672565 39.686615,41.436993 38.073959,40.193062 33.1311,36.380321 29.269346,34.526867 26.267761,34.526867 c -7.1448,0 -12.957482,5.81287 -12.957482,12.957481 0,7.144802 5.812682,12.957669 12.957482,12.957669 3.001587,0 6.863526,-1.853268 11.806198,-5.666378 3.385903,-2.611695 6.024704,-5.189602 6.139447,-5.302113 l 7.615821,-7.46191 c 0.318039,-0.311539 3.209156,-3.121525 6.747483,-5.8513 5.949146,-4.589176 10.689075,-6.726322 14.916767,-6.726322 9.952926,0 18.050361,8.097428 18.050361,18.050541 0,9.953114 -8.097244,18.050354 -18.050178,18.050354 z M 61.610043,47.484348 c 0.966735,-0.852741 2.188571,-1.887245 3.520694,-2.912838 5.392533,-4.151943 7.764351,-4.474807 8.36274,-4.474807 4.073593,0 7.387642,3.314239 7.387642,7.387645 0,4.073597 -3.314057,7.387833 -7.38765,7.387833 -0.598572,0 -2.970207,-0.322681 -8.362739,-4.474804 -1.331932,-1.025597 -2.553955,-2.060284 -3.520695,-2.913029 z m -23.458668,0 c -0.966736,0.852745 -2.188572,1.887432 -3.520695,2.913029 -5.392528,4.151943 -7.764349,4.474804 -8.362921,4.474804 -4.073593,0 -7.387645,-3.314243 -7.387645,-7.387833 0,-4.073406 3.314052,-7.387645 7.387645,-7.387645 0.598572,0 2.970392,0.322681 8.362925,4.474807 1.332119,1.025593 2.553955,2.060097 3.520695,2.912838 z"
         id="path10268"
         style="fill:#ffb6c1;fill-opacity:1;stroke:none;stroke-width:1.86186;stroke-opacity:1" /><path
         d="M 37.985027,75.628181 C 36.036884,74.463524 33.66692,74.14994 31.482984,74.768013 l -1.52112,0.50296 -1.400631,-0.466011 -0.120493,-0.03695 c -2.184305,-0.618439 -4.553899,-0.305046 -6.502042,0.860169 -1.948328,1.164833 -3.345988,3.104255 -3.835019,5.320861 -0.647028,2.933266 0.345889,5.985718 2.592017,7.976746 L 29.961864,97.5 l 9.26598,-8.574211 c 2.246128,-1.991028 3.239048,-5.043488 2.592018,-7.976746 -0.488846,-2.216423 -1.886692,-4.156029 -3.834835,-5.320862 z m -2.461868,9.138436 -5.561295,5.144851 -5.50727,-5.09584 -0.05421,-0.04901 c -0.741531,-0.650932 -1.07015,-1.65387 -0.857569,-2.617638 0.162268,-0.735779 0.60767,-1.353843 1.254326,-1.740387 0.426836,-0.255287 0.901201,-0.385437 1.382805,-0.385437 0.230963,0 0.463594,0.0299 0.693445,0.09023 l 3.088473,1.02726 3.088474,-1.02726 c 0.709228,-0.186218 1.444443,-0.08244 2.076248,0.295204 0.646473,0.386544 1.091873,1.004608 1.254143,1.740387 0.212582,0.963578 -0.116039,1.966706 -0.857571,2.617638 h 4e-6 z"
         id="path10270"
         style="fill:#ffb6c1;fill-opacity:1;stroke:none;stroke-width:1.86186;stroke-opacity:1" /><path
         d="m 77.725441,75.628181 c -1.94796,-1.164657 -4.317925,-1.478241 -6.502045,-0.860168 l -1.521118,0.50296 -1.400627,-0.466011 -0.120499,-0.03695 c -2.183929,-0.617882 -4.553711,-0.304672 -6.502037,0.860169 -1.948146,1.164833 -3.345989,3.104438 -3.834835,5.320861 -0.647026,2.933266 0.346077,5.985718 2.592018,7.976746 L 69.702278,97.5 78.968445,88.925789 c 2.246124,-1.991028 3.239044,-5.043488 2.59201,-7.976746 -0.488838,-2.216606 -1.88668,-4.156029 -3.835014,-5.320862 z m -2.461685,9.138436 -5.561478,5.144851 -5.50708,-5.09584 -0.05421,-0.04901 c -0.741528,-0.650932 -1.070153,-1.65387 -0.857567,-2.617638 0.162266,-0.735779 0.607669,-1.353843 1.254142,-1.740387 0.426835,-0.255287 0.9012,-0.385437 1.382805,-0.385437 0.230957,0 0.463601,0.0299 0.693444,0.09023 l 3.088478,1.02726 3.08847,-1.02726 c 0.709229,-0.186218 1.444451,-0.08244 2.076256,0.295204 0.646469,0.386544 1.092056,1.004608 1.254326,1.740387 0.212769,0.963578 -0.115845,1.966706 -0.857567,2.617638 h -1.5e-5 z"
         id="path10272"
         style="fill:#ffb6c1;fill-opacity:1;stroke:none;stroke-width:1.86186;stroke-opacity:1" /><path
         d="m 40.566273,16.968883 9.265796,8.573838 9.26598,-8.574208 c 2.246128,-1.99103 3.239044,-5.043302 2.592018,-7.9763779 C 61.201221,6.7755256 59.803562,4.8361083 57.855423,3.6710845 55.907093,2.5060602 53.537125,2.1922928 51.353191,2.8107306 L 49.832073,3.3136868 48.431629,2.8476772 48.310951,2.8107307 c -2.18412,-0.618252 -4.553898,-0.3046701 -6.502228,0.8603539 -1.948143,1.165024 -3.345802,3.1044414 -3.834648,5.3208647 -0.647026,2.9332617 0.346074,5.9857187 2.592205,7.9769347 z m 2.846931,-6.777191 c 0.162266,-0.7355886 0.607666,-1.3536554 1.254143,-1.7402025 0.426834,-0.2552834 0.901199,-0.3856182 1.382992,-0.3856182 0.230774,0 0.463409,0.029892 0.693073,0.090232 l 3.088661,1.0276346 3.088658,-1.0276346 c 0.709224,-0.1864042 1.444629,-0.082249 2.076065,0.2953863 0.646469,0.3865471 1.091873,1.0046129 1.254143,1.7403884 0.212577,0.963397 -0.11604,1.966524 -0.857567,2.617452 l -5.561299,5.144859 -5.507267,-5.095844 -0.05421,-0.04883 c -0.741349,-0.651298 -1.06997,-1.654055 -0.857388,-2.617823 z"
         id="path10274"
         style="fill:#ffb6c1;fill-opacity:1;stroke:none;stroke-width:1.86186;stroke-opacity:1" /><path
         d="m 6.6814275,86.709557 h 5.5698375 v 5.990356 H 6.6814275 Z"
         id="path10276"
         style="fill:#ffb6c1;fill-opacity:1;stroke:none;stroke-width:1.86186;stroke-opacity:1" /><path
         d="m 87.413063,86.709557 h 5.569832 v 5.990356 h -5.569832 z"
         id="path10278"
         style="fill:#ffb6c1;fill-opacity:1;stroke:none;stroke-width:1.86186;stroke-opacity:1" /><path
         d="m 47.04715,67.77211 h 5.569835 v 5.990356 H 47.04715 Z"
         id="path10280"
         style="fill:#ffb6c1;fill-opacity:1;stroke:none;stroke-width:1.86186;stroke-opacity:1" /><path
         d="m 18.640982,5.2807674 h 5.569837 v 5.9903596 h -5.569837 z"
         id="path10282"
         style="fill:#ffb6c1;fill-opacity:1;stroke:none;stroke-width:1.86186;stroke-opacity:1" /><path
         d="M 2.5148184,13.700318 H 8.084656 v 5.990175 H 2.5148184 Z"
         id="path10284"
         style="fill:#ffb6c1;fill-opacity:1;stroke:none;stroke-width:1.86186;stroke-opacity:1" /><path
         d="m 75.788994,5.2807674 h 5.569839 v 5.9903596 h -5.569839 z"
         id="path10286"
         style="fill:#ffb6c1;fill-opacity:1;stroke:none;stroke-width:1.86186;stroke-opacity:1" /><path
         d="m 91.915344,13.700318 h 5.56984 v 5.990175 h -5.56984 z"
         id="path10288"
         style="fill:#ffb6c1;fill-opacity:1;stroke:none;stroke-width:1.86186;stroke-opacity:1" /></g></g></svg>
