<?xml version="1.0" encoding="UTF-8" standalone="no"?>
<svg
   version="1.1"
   x="0px"
   y="0px"
   viewBox="0 0 64 80"
   enable-background="new 0 0 64 64"
   xml:space="preserve"
   id="svg4007"
   sodipodi:docname="down.svg"
   inkscape:version="1.2.1 (9c6d41e4, 2022-07-14)"
   xmlns:inkscape="http://www.inkscape.org/namespaces/inkscape"
   xmlns:sodipodi="http://sodipodi.sourceforge.net/DTD/sodipodi-0.dtd"
   xmlns="http://www.w3.org/2000/svg"
   xmlns:svg="http://www.w3.org/2000/svg"><defs
     id="defs4011" /><sodipodi:namedview
     id="namedview4009"
     pagecolor="#ffffff"
     bordercolor="#000000"
     borderopacity="0.25"
     inkscape:showpageshadow="2"
     inkscape:pageopacity="0.0"
     inkscape:pagecheckerboard="0"
     inkscape:deskcolor="#d1d1d1"
     showgrid="false"
     inkscape:zoom="2.95"
     inkscape:cx="18.983051"
     inkscape:cy="43.898305"
     inkscape:window-width="1792"
     inkscape:window-height="1067"
     inkscape:window-x="0"
     inkscape:window-y="25"
     inkscape:window-maximized="0"
     inkscape:current-layer="g4001" /><g
     id="g4001"
     style="stroke:#000000;stroke-opacity:1;stroke-width:2;stroke-dasharray:none"
     transform="translate(-0.01033357,7.9982114)"><g
       id="g5247"
       transform="matrix(1,0,0,-1,0,65.861897)"
       style="stroke:#87cefa;stroke-opacity:1;fill:#87cefa;fill-opacity:1"><g
         id="g3979"
         style="stroke:#87cefa;stroke-width:2;stroke-dasharray:none;stroke-opacity:1;fill:#87cefa;fill-opacity:1"
         transform="translate(0.01033357,3.7288136)"><path
           d="m 32,57 c -8.747,0 -9,-18.851 -9,-21 0,-0.552 0.447,-1 1,-1 0.552,0 1,0.448 1,1 0.002,5.285 1.263,19 7,19 5.737,0 6.998,-13.715 7,-19 0,-0.552 0.448,-1 1,-1 v 0 c 0.553,0 1,0.448 1,1 0,2.149 -0.253,21 -9,21 z"
           id="path3977"
           style="stroke:#87cefa;stroke-width:2;stroke-dasharray:none;stroke-opacity:1;fill:#87cefa;fill-opacity:1" /></g><g
         id="g3983"
         style="stroke:#87cefa;stroke-width:2;stroke-dasharray:none;stroke-opacity:1;fill:#87cefa;fill-opacity:1"
         transform="translate(0.01033357,3.7288136)"><path
           d="m 32,57 c -0.553,0 -1,-0.448 -1,-1 V 36 c 0,-0.552 0.447,-1 1,-1 0.553,0 1,0.448 1,1 v 20 c 0,0.552 -0.447,1 -1,1 z"
           id="path3981"
           style="stroke:#87cefa;stroke-width:2;stroke-dasharray:none;stroke-opacity:1;fill:#87cefa;fill-opacity:1" /></g><g
         id="g3987"
         style="stroke:#87cefa;stroke-width:2;stroke-dasharray:none;stroke-opacity:1;fill:#87cefa;fill-opacity:1"
         transform="translate(8.0103336,2.0338983)"><path
           d="m 24,33 c -2.201,0 -3,-1.794 -3,-3 0,-0.552 0.447,-1 1,-1 0.549,0 0.995,0.442 1,0.99 0.012,0.461 0.196,1.01 1,1.01 0.806,0 0.988,-0.55 1,-1.012 0.014,-0.543 0.458,-0.981 1,-0.981 0.004,0 0.008,0 0.013,0 C 26.56,29.014 27,29.453 27,30 c 0,1.206 -0.799,3 -3,3 z"
           id="path3985"
           style="stroke:#87cefa;stroke-width:2;stroke-dasharray:none;stroke-opacity:1;fill:#87cefa;fill-opacity:1" /></g><g
         id="g3991"
         style="stroke:#87cefa;stroke-width:2;stroke-dasharray:none;stroke-opacity:1;fill:#87cefa;fill-opacity:1"
         transform="translate(0.01033357,2.0338983)"><path
           d="m 32,33 c -2.201,0 -3,-1.794 -3,-3 0,-0.552 0.447,-1 1,-1 0.549,0 0.995,0.442 1,0.99 0.012,0.461 0.196,1.01 1,1.01 0.806,0 0.988,-0.55 1,-1.012 0.014,-0.543 0.458,-0.981 1,-0.981 0.004,0 0.008,0 0.013,0 C 34.56,29.014 35,29.453 35,30 c 0,1.206 -0.799,3 -3,3 z"
           id="path3989"
           style="stroke:#87cefa;stroke-width:2;stroke-dasharray:none;stroke-opacity:1;fill:#87cefa;fill-opacity:1" /></g><g
         id="g3995"
         style="stroke:#87cefa;stroke-width:2;stroke-dasharray:none;stroke-opacity:1;fill:#87cefa;fill-opacity:1"
         transform="translate(-7.9896664,2.0338983)"><path
           d="m 40,33 c -2.201,0 -3,-1.794 -3,-3 0,-0.552 0.447,-1 1,-1 0.549,0 0.995,0.442 1,0.99 0.012,0.461 0.196,1.01 1,1.01 0.806,0 0.988,-0.55 1,-1.012 0.014,-0.543 0.458,-0.981 1,-0.981 0.004,0 0.008,0 0.013,0 C 42.56,29.014 43,29.453 43,30 c 0,1.206 -0.799,3 -3,3 z"
           id="path3993"
           style="stroke:#87cefa;stroke-width:2;stroke-dasharray:none;stroke-opacity:1;fill:#87cefa;fill-opacity:1" /></g><g
         id="g3999"
         style="stroke:#87cefa;stroke-width:2;stroke-dasharray:none;stroke-opacity:1;fill:#87cefa;fill-opacity:1"
         transform="translate(-1.7417144e-4)"><path
           d="M 48.02,27 C 48.014,27 48.007,26.999 48,27 H 16 c -0.394,0 -0.751,-0.231 -0.912,-0.59 -0.161,-0.359 -0.097,-0.78 0.165,-1.074 l 16,-18 c 0.379,-0.427 1.115,-0.427 1.494,0 l 15.895,17.881 c 0.23,0.183 0.378,0.466 0.378,0.783 0,0.552 -0.448,1 -1,1 z M 18.227,25 H 45.774 L 32,9.505 Z"
           id="path3997"
           style="stroke:#87cefa;stroke-width:2;stroke-dasharray:none;stroke-opacity:1;fill:#87cefa;fill-opacity:1" /></g></g></g></svg>
