<?xml version="1.0" encoding="UTF-8" standalone="no"?>
<svg
   version="1.1"
   x="0px"
   y="0px"
   viewBox="0 0 64 63.999998"
   xml:space="preserve"
   id="svg5659"
   width="64"
   height="64"
   xmlns="http://www.w3.org/2000/svg"
   xmlns:svg="http://www.w3.org/2000/svg"><defs
     id="defs5663" /><g
     id="g5653"
     transform="matrix(0.11622769,0,0,0.10946916,4.1549465,5.2902386)"
     style="fill:#f5df4d;fill-opacity:1;stroke:none;stroke-width:8.86545;stroke-opacity:1"><path
       d="m 439.079,348.856 c -11.575,-12.425 -31.936,-16.547 -49.899,-20.184 -14.193,-2.874 -26.45,-5.355 -33.077,-11.557 -7.087,-6.632 -9.915,-16.769 -7.566,-27.114 2.304,-10.152 9.071,-18.379 17.241,-20.959 6.944,-2.193 13.872,-1.995 21.203,-1.788 7.707,0.22 15.673,0.446 24.752,-2.017 16.699,-4.532 26.682,-13.143 28.107,-24.248 1.283,-9.989 -4.074,-31.192 -22.274,-34.944 -6.344,-1.307 -14.043,-0.997 -21.487,-0.694 -15.275,0.619 -32.601,1.321 -37.942,-13.994 -4.913,-14.085 3.532,-21.753 10.318,-27.915 3.791,-3.442 7.371,-6.693 8.39,-10.579 1.024,-3.907 -1.564,-7.218 -5.874,-12.297 -5.041,-5.942 -11.315,-13.338 -8.822,-24.304 1.764,-7.756 8.56,-14.771 16.429,-22.895 11.184,-11.545 23.858,-24.63 23.858,-42.183 0,-11.836 -5.252,-21.63 -14.788,-27.578 -11.494,-7.17 -27.087,-7.486 -40.689,-0.823 -17.858,8.747 -31.081,31.996 -41.706,50.676 -6.233,10.959 -11.157,19.616 -16.085,23.876 -7.449,6.439 -17.856,8.304 -27.158,4.867 -7.318,-2.704 -12.278,-8.217 -13.267,-14.749 -1.021,-6.75 0.773,-12.847 2.509,-18.742 1.695,-5.76 3.296,-11.201 2.391,-17.199 -0.706,-4.674 -3.99,-7.625 -6.62,-9.278 -5.599,-3.519 -13.716,-4.682 -19.733,-2.828 -3.431,1.056 -7.083,3.863 -10.95,6.835 -7.415,5.698 -16.644,12.791 -27.143,7.19 C 181.49,49.321 179.49,41.488 177.372,33.194 175.26,24.923 173.076,16.37 165.18,9.423 150.009,-3.921 131.595,-1.409 120.911,6.57 c -10.433,7.79 -14.201,28.14 -3.631,43.715 5.221,7.691 16.097,15.507 26.614,23.065 13.025,9.361 25.328,18.202 30.212,28.294 5.01,10.352 4.693,21.808 -0.848,30.645 -5.223,8.33 -14.151,12.917 -25.142,12.917 -12.453,0 -20.826,-6.694 -28.925,-13.167 -7.666,-6.128 -14.907,-11.917 -25.893,-13.116 -1.577,-0.172 -3.138,-0.255 -4.674,-0.255 -19.465,0 -35.269,13.302 -39.309,26.859 -4.317,14.493 -3.225,35.477 9.379,47.3 8.109,7.609 19.719,11.66 29.961,15.233 6.431,2.244 11.983,4.181 16.051,6.758 6.069,3.845 10.257,11.521 10.928,20.033 0.665,8.432 -2.232,16.154 -7.947,21.187 -3.993,3.516 -9.155,5.938 -14.147,8.279 -10.851,5.089 -17.439,8.832 -17.439,17.876 0,7.411 4.763,13.302 9.805,19.539 5.989,7.409 12.183,15.069 9.97,25.517 -1.948,9.203 -10.531,15.443 -20.469,22.668 -10.261,7.46 -21.89,15.916 -27.001,28.925 -10.184,25.923 -1.903,54.153 7.989,64.565 10.488,11.039 37.407,24.005 71.786,2.591 22.104,-13.769 35.012,-44.327 45.384,-68.88 5.996,-14.196 10.732,-25.409 16.221,-31.1 7.659,-7.945 17.898,-11.512 28.087,-9.791 8.957,1.513 16.419,6.996 19.96,14.667 3.461,7.498 2.477,16.829 1.524,25.854 -0.982,9.312 -1.91,18.107 1.822,23.836 7.136,10.957 33.032,12.836 47.773,3.469 5.509,-3.5 8.406,-10.724 11.474,-18.371 4.908,-12.239 11.018,-27.47 31.1,-27.47 19.132,0 28.263,16.089 37.093,31.648 5.658,9.969 11.51,20.278 19.701,25.071 19.905,11.646 47.703,11.128 59.488,-1.11 11.924,-12.383 10.689,-44.122 -8.729,-64.965 z M 336.406,256.443 c -10.865,-1.166 -17.632,-1.454 -19.974,4.371 -2.194,5.458 0.319,12.328 2.979,19.601 3.229,8.827 6.567,17.954 1.478,25.882 -6.419,9.998 -17.522,11.037 -23.928,10.687 -0.23,5.854 -1.65,15.719 -8.042,22.723 -4.802,5.262 -11.409,7.93 -19.64,7.93 -22.884,0 -27.281,-22.002 -30.191,-36.562 -0.934,-4.673 -1.815,-9.086 -3.03,-11.586 -1.817,-3.74 -5.972,-6.853 -11.396,-8.539 -6.48,-2.014 -13.546,-1.685 -18.002,0.84 -3.555,2.016 -6.609,5.019 -9.843,8.197 -5.346,5.255 -11.404,11.211 -21.317,14.36 -16.995,5.402 -35.742,-3.287 -44.044,-14.808 -8.151,-11.312 -11.648,-37.229 1.174,-53.74 5.621,-7.238 12.389,-11.356 17.825,-14.665 6.005,-3.654 9.139,-5.716 9.139,-9.033 0,-3.288 -3.783,-5.632 -10.014,-9.103 -5.251,-2.924 -11.203,-6.24 -14.541,-11.709 -3.661,-5.999 -3.872,-14.97 -0.55,-23.412 3.515,-8.931 10.018,-15.31 17.841,-17.5 10.653,-2.981 18.82,0.425 26.025,3.433 3.617,1.51 7.035,2.936 10.433,3.401 4.559,0.625 8.969,-0.576 12.084,-3.295 1.896,-1.653 4.154,-4.609 4.154,-9.301 0,-3.943 -1.527,-7.926 -3.296,-12.539 -2.549,-6.645 -5.437,-14.177 -4.521,-23.839 0.777,-8.192 6.656,-15.27 15.342,-18.469 9.823,-3.619 20.808,-1.455 27.984,5.508 8.627,8.37 11.42,23.304 13.884,36.48 1.341,7.169 2.607,13.941 4.468,16.794 2.015,3.091 5.219,4.933 8.79,5.056 3.962,0.142 7.712,-1.79 10.346,-5.28 2.746,-3.641 3.13,-9.913 3.536,-16.552 0.468,-7.647 0.998,-16.315 5.254,-23.718 8.504,-14.788 27.01,-15.91 40.895,-9.38 13.932,6.553 20.727,24.692 15.807,42.193 -2.255,8.02 -9.212,15.847 -15.94,23.416 -7.511,8.45 -15.277,17.188 -13.244,23.014 1.909,5.467 8.555,5.431 19.264,4.725 5.871,-0.388 11.94,-0.789 16.942,0.683 13.242,3.895 20.834,11.992 22.566,24.068 1.596,11.138 -4.657,25.264 -19.39,29.505 -5.106,1.473 -11.31,0.806 -17.307,0.163 z"
       id="path5623"
       style="fill:#f5df4d;fill-opacity:1;stroke:none;stroke-width:10.4935;stroke-opacity:1" /><path
       d="m 365.182,227.911 c -1.265,-8.821 -6.794,-14.555 -16.904,-17.528 -3.636,-1.07 -8.984,-0.716 -14.157,-0.375 -10.379,0.685 -23.291,1.538 -27.344,-10.071 -3.582,-10.264 5.771,-20.788 14.817,-30.965 6.127,-6.893 12.462,-14.02 14.219,-20.267 3.875,-13.783 -1.073,-27.879 -11.51,-32.789 -8.554,-4.024 -23.748,-5.71 -30.555,6.128 -3.321,5.775 -3.771,13.118 -4.204,20.218 -0.481,7.877 -0.937,15.317 -5.135,20.882 -4.226,5.601 -10.421,8.669 -17.007,8.458 -6.213,-0.213 -11.759,-3.377 -15.217,-8.682 -2.73,-4.187 -4.074,-11.373 -5.63,-19.693 -2.134,-11.41 -4.79,-25.61 -11.591,-32.208 -4.984,-4.835 -12.699,-6.305 -19.648,-3.744 -5.86,2.159 -9.651,6.539 -10.143,11.718 -0.739,7.794 1.683,14.11 4.025,20.219 1.968,5.132 3.826,9.979 3.826,15.403 0,6.006 -2.448,11.451 -6.895,15.33 -4.857,4.238 -11.576,6.13 -18.428,5.192 -4.432,-0.606 -8.498,-2.303 -12.43,-3.944 -6.588,-2.749 -12.807,-5.348 -20.788,-3.111 -5.309,1.486 -10.002,6.244 -12.553,12.726 -2.387,6.065 -2.413,12.469 -0.066,16.314 2.242,3.672 7.002,6.324 11.606,8.888 6.618,3.687 14.12,7.865 14.12,16.091 0,7.969 -6.305,11.805 -12.979,15.867 -5.131,3.123 -10.947,6.662 -15.666,12.738 -10.393,13.382 -7.535,35.09 -1.002,44.156 6.492,9.01 21.765,16.107 35.132,11.86 8.091,-2.571 13.194,-7.589 18.131,-12.441 3.46,-3.401 7.037,-6.917 11.506,-9.451 3.721,-2.11 8.442,-3.188 13.441,-3.188 3.572,0 7.286,0.55 10.881,1.667 7.637,2.374 13.396,6.877 16.217,12.681 1.663,3.423 2.598,8.1 3.681,13.515 3.411,17.071 7.223,30.129 22.346,30.129 5.958,0 10.442,-1.733 13.709,-5.299 7.057,-7.702 5.947,-21.384 5.935,-21.521 -0.111,-1.274 0.393,-2.528 1.356,-3.369 0.963,-0.841 2.274,-1.172 3.518,-0.889 0.129,0.029 14.196,3.018 20.359,-6.583 2.945,-4.587 0.418,-11.497 -2.258,-18.812 -2.92,-7.981 -6.229,-17.026 -2.889,-25.334 4.768,-11.861 17.788,-10.463 28.248,-9.341 5.232,0.562 10.64,1.142 14.241,0.105 10.387,-2.987 14.803,-12.885 13.685,-20.68 z"
       id="path5625"
       style="fill:#f5df4d;fill-opacity:1;stroke:none;stroke-width:10.4935;stroke-opacity:1" /><path
       d="m 169.061,449.78 c -3.157,9.649 -2.84,18.953 0.871,25.525 2.158,3.824 5.272,6.374 8.77,7.181 4.278,0.987 8.659,0.26 12.33,-2.049 4.637,-2.917 7.902,-8.088 9.445,-14.953 1.42,-6.325 1.299,-18.231 1.158,-32.017 -0.141,-13.718 -0.304,-29.692 1.128,-44.227 -11.738,18.589 -29.55,47.851 -33.702,60.54 z"
       id="path5627"
       style="fill:#f5df4d;fill-opacity:1;stroke:none;stroke-width:10.4935;stroke-opacity:1" /><path
       d="m 329.13,399.349 c 1.628,20.346 4.53,50.731 7.224,57.506 3.502,8.806 12.412,13.56 19.859,10.599 7.447,-2.962 10.658,-12.536 7.157,-21.342 -2.694,-6.776 -21.451,-30.855 -34.24,-46.763 z"
       id="path5629"
       style="fill:#f5df4d;fill-opacity:1;stroke:none;stroke-width:10.4935;stroke-opacity:1" /><path
       d="m 460.42,294.682 c -7.08,-1.732 -37.575,-0.415 -57.953,0.781 17.521,10.472 43.959,25.726 51.041,27.459 4.553,1.115 9.188,0.627 13.049,-1.377 3.681,-1.91 6.202,-4.984 7.101,-8.657 1.905,-7.785 -4.033,-15.952 -13.238,-18.206 z"
       id="path5631"
       style="fill:#f5df4d;fill-opacity:1;stroke:none;stroke-width:10.4935;stroke-opacity:1" /><path
       d="M 296.418,6.456 C 295.54,6.188 294.647,6.06 293.757,6.06 c -4.871,0 -9.652,3.833 -11.405,9.581 -1.486,4.872 -1.954,25.442 -1.94,43.303 9.978,-14.814 21.069,-32.145 22.555,-37.017 2.072,-6.797 -0.866,-13.738 -6.549,-15.471 z"
       id="path5633"
       style="fill:#f5df4d;fill-opacity:1;stroke:none;stroke-width:10.4935;stroke-opacity:1" /><path
       d="m 468.119,76.634 c 0.916,-4.044 0.194,-7.955 -2.031,-11.011 -2.226,-3.057 -5.726,-4.943 -9.855,-5.314 -0.5,-0.045 -1.003,-0.067 -1.506,-0.067 -3.85,0 -7.735,1.304 -11.089,3.746 -5.895,4.291 -24.565,28.438 -36.8,44.775 19.305,-6.627 48.019,-16.98 53.912,-21.272 3.792,-2.761 6.409,-6.616 7.369,-10.857 z"
       id="path5635"
       style="fill:#f5df4d;fill-opacity:1;stroke:none;stroke-width:10.4935;stroke-opacity:1" /><path
       d="m 452.577,144.847 c -7.028,1.938 -33.012,17.956 -50.22,28.933 20.403,0.604 50.923,1.033 57.951,-0.906 4.521,-1.247 8.328,-3.933 10.722,-7.563 2.282,-3.462 2.985,-7.375 1.98,-11.02 -2.132,-7.729 -11.297,-11.963 -20.433,-9.444 z"
       id="path5637"
       style="fill:#f5df4d;fill-opacity:1;stroke:none;stroke-width:10.4935;stroke-opacity:1" /><path
       d="m 479.103,466.397 c -0.284,-3.375 -1.896,-6.678 -4.536,-9.303 h -0.001 c -3.546,-3.525 -15.502,-7.291 -25.083,-9.62 2.388,9.566 6.226,21.499 9.772,25.024 5.275,5.244 13.001,6.053 17.223,1.806 1.957,-1.969 2.889,-4.777 2.625,-7.907 z"
       id="path5639"
       style="fill:#f5df4d;fill-opacity:1;stroke:none;stroke-width:10.4935;stroke-opacity:1" /><path
       d="m 455.427,22.593 c 3.217,-1.875 5.607,-4.667 6.733,-7.861 1.043,-2.963 0.848,-5.915 -0.55,-8.313 -3.017,-5.173 -10.698,-6.334 -17.122,-2.588 -4.32,2.519 -11.04,13.101 -15.759,21.758 9.866,0.155 22.377,-0.477 26.698,-2.996 z"
       id="path5641"
       style="fill:#f5df4d;fill-opacity:1;stroke:none;stroke-width:10.4935;stroke-opacity:1" /><path
       d="m 18.536,87.948 c -3.162,-1.963 -6.745,-2.767 -10.099,-2.265 -3.106,0.466 -5.624,2.022 -7.088,4.38 -3.157,5.088 -0.584,12.417 5.735,16.339 4.249,2.637 16.746,3.616 26.604,3.729 C 29.211,101.348 22.786,90.585 18.536,87.948 Z"
       id="path5643"
       style="fill:#f5df4d;fill-opacity:1;stroke:none;stroke-width:10.4935;stroke-opacity:1" /><path
       d="m 31.126,460.456 c -0.999,0 -1.907,0.132 -2.598,0.274 -3.771,0.778 -7.543,3.049 -10.618,6.394 -5.915,6.435 -7.378,15.121 -3.193,18.968 2.53,2.326 6.107,2.015 8.015,1.621 3.772,-0.778 7.543,-3.049 10.618,-6.394 5.915,-6.435 7.378,-15.121 3.193,-18.968 -1.615,-1.484 -3.657,-1.895 -5.417,-1.895 z"
       id="path5645"
       style="fill:#f5df4d;fill-opacity:1;stroke:none;stroke-width:10.4935;stroke-opacity:1" /><path
       d="M 40.35,67.905 C 50.351,76.07 96.877,90.606 125.298,98.8 105.502,77.725 72.934,43.942 64.106,38.729 57.879,35.051 51.177,33.425 45.451,33.425 c -5.805,0 -10.607,1.671 -12.899,4.572 -4.547,5.751 -6.221,18.462 7.798,29.908 z"
       id="path5647"
       style="fill:#f5df4d;fill-opacity:1;stroke:none;stroke-width:10.4935;stroke-opacity:1" /><path
       d="m 22.76,324.638 c -3.035,1.063 -5.476,3.244 -6.871,6.143 -1.395,2.898 -1.578,6.167 -0.515,9.202 1.063,3.036 3.244,5.477 6.142,6.872 2.899,1.396 6.167,1.578 9.203,0.516 4.491,-1.572 18.37,-13.202 29.363,-23.039 -7.556,-0.427 -16,-0.749 -23.038,-0.749 -6.682,-0.001 -12.097,0.289 -14.284,1.055 z"
       id="path5649"
       style="fill:#f5df4d;fill-opacity:1;stroke:none;stroke-width:10.4935;stroke-opacity:1" /><path
       d="m 40.742,229.017 c -0.677,0 -1.246,0.035 -1.696,0.11 -6.55,1.092 -10.989,7.31 -9.897,13.86 0.529,3.172 2.263,5.949 4.881,7.818 2.617,1.869 5.806,2.608 8.979,2.078 4.693,-0.783 20.354,-9.874 32.864,-17.69 -12.992,-3.013 -28.758,-6.176 -35.131,-6.176 z"
       id="path5651"
       style="fill:#f5df4d;fill-opacity:1;stroke:none;stroke-width:10.4935;stroke-opacity:1" /></g></svg>
