<?xml version="1.0" encoding="UTF-8" standalone="no"?>
<svg
   version="1.1"
   x="0px"
   y="0px"
   viewBox="0 0 64 64"
   enable-background="new 0 0 64 64"
   xml:space="preserve"
   id="svg2706"
   width="64"
   height="64"
   xmlns="http://www.w3.org/2000/svg"
   xmlns:svg="http://www.w3.org/2000/svg"><defs
     id="defs2710" /><g
     id="g2704"><g
       id="g3194"
       transform="translate(0,-7.7923122)"><g
         id="g2686"
         transform="translate(-0.01050774,6.779661)"
         style="stroke:#ffa07a;stroke-opacity:1"><path
           d="M 48.02,27 C 48.014,27 48.006,26.999 48,27 H 16 c -0.394,0 -0.751,-0.231 -0.912,-0.59 -0.161,-0.359 -0.097,-0.78 0.165,-1.074 l 16,-18 c 0.379,-0.427 1.115,-0.427 1.494,0 l 15.895,17.881 c 0.23,0.183 0.378,0.466 0.378,0.783 0,0.552 -0.448,1 -1,1 z M 18.227,25 H 45.774 L 32,9.505 Z"
           stroke="#000000"
           stroke-width="2"
           id="path2684"
           style="stroke:#ffa07a;stroke-opacity:1" /></g><g
         id="g2690"
         transform="translate(0,8.8135593)"
         style="stroke:#ffa07a;stroke-opacity:1"><path
           d="m 32,35 c -6.341,0 -10.532,-4.118 -10.707,-4.293 -0.391,-0.391 -0.391,-1.023 0,-1.414 0.391,-0.391 1.022,-0.391 1.413,-10e-4 C 22.769,29.354 26.528,33 32,33 c 5.521,0 9.256,-3.67 9.293,-3.707 0.391,-0.391 1.023,-0.391 1.414,0 0.391,0.391 0.391,1.023 0,1.414 C 42.532,30.882 38.341,35 32,35 Z"
           stroke="#000000"
           stroke-width="2"
           id="path2688"
           style="stroke:#ffa07a;stroke-opacity:1" /></g><g
         id="g2694"
         transform="translate(0,8.8135593)"
         style="stroke:#ffa07a;stroke-opacity:1"><path
           d="m 32,57 c -6.341,0 -10.532,-4.118 -10.707,-4.293 -0.391,-0.391 -0.391,-1.023 0,-1.414 0.391,-0.391 1.022,-0.391 1.413,-10e-4 C 22.769,51.354 26.528,55 32,55 c 5.521,0 9.256,-3.67 9.293,-3.707 0.391,-0.391 1.023,-0.391 1.414,0 0.391,0.391 0.391,1.023 0,1.414 C 42.532,52.882 38.341,57 32,57 Z"
           stroke="#000000"
           stroke-width="2"
           id="path2692"
           style="stroke:#ffa07a;stroke-opacity:1" /></g><g
         id="g2698"
         transform="translate(0,8.8135593)"
         style="stroke:#ffa07a;stroke-opacity:1"><path
           d="m 32,51 c -2.757,0 -5,-2.243 -5,-5 0,-2.757 2.243,-5 5,-5 2.757,0 5,2.243 5,5 0,2.757 -2.243,5 -5,5 z m 0,-8 c -1.654,0 -3,1.346 -3,3 0,1.654 1.346,3 3,3 1.654,0 3,-1.346 3,-3 0,-1.654 -1.346,-3 -3,-3 z"
           stroke="#000000"
           stroke-width="2"
           id="path2696"
           style="stroke:#ffa07a;stroke-opacity:1" /></g><g
         id="g2702"
         transform="translate(0,8.8135593)"
         style="stroke:#ffa07a;stroke-opacity:1"><path
           d="m 32,43 c -0.553,0 -1,-0.448 -1,-1 v -8 c 0,-0.552 0.447,-1 1,-1 0.553,0 1,0.448 1,1 v 8 c 0,0.552 -0.447,1 -1,1 z"
           stroke="#000000"
           stroke-width="2"
           id="path2700"
           style="stroke:#ffa07a;stroke-opacity:1" /></g></g></g></svg>
