<?xml version="1.0" encoding="UTF-8" standalone="no"?>
<svg
   version="1.1"
   x="0px"
   y="0px"
   viewBox="0 0 208 220"
   enable-background="new 0 0 208 176"
   xml:space="preserve"
   id="svg5325"
   sodipodi:docname="bottom.svg"
   inkscape:version="1.2.1 (9c6d41e4, 2022-07-14)"
   xmlns:inkscape="http://www.inkscape.org/namespaces/inkscape"
   xmlns:sodipodi="http://sodipodi.sourceforge.net/DTD/sodipodi-0.dtd"
   xmlns="http://www.w3.org/2000/svg"
   xmlns:svg="http://www.w3.org/2000/svg"><defs
     id="defs5329" /><sodipodi:namedview
     id="namedview5327"
     pagecolor="#ffffff"
     bordercolor="#000000"
     borderopacity="0.25"
     inkscape:showpageshadow="2"
     inkscape:pageopacity="0.0"
     inkscape:pagecheckerboard="0"
     inkscape:deskcolor="#d1d1d1"
     showgrid="false"
     inkscape:zoom="1.0727273"
     inkscape:cx="31.694914"
     inkscape:cy="108.60169"
     inkscape:window-width="1792"
     inkscape:window-height="1067"
     inkscape:window-x="0"
     inkscape:window-y="25"
     inkscape:window-maximized="0"
     inkscape:current-layer="g5488" /><g
     id="g5319"><g
       id="g5488"
       transform="translate(0.73791504,21.5)"><circle
         cx="103.26172"
         cy="88.5"
         r="10.901367"
         id="circle5283"
         style="stroke:none;stroke-opacity:1;fill:#f0e68c;fill-opacity:1" /><path
         d="m 130.84863,103.77539 -5.15918,-5.167968 c 0.20996,-0.453125 0.3916,-0.927735 0.57813,-1.396485 h 7.30664 c 2.35937,0 4.26953,-1.913086 4.26953,-4.277343 V 84.0625 c 0,-2.363281 -1.91016,-4.276367 -4.26953,-4.276367 h -7.30664 c -0.1836,-0.470215 -0.36817,-0.941406 -0.57813,-1.401367 l 5.15918,-5.164063 c 1.67285,-1.658691 1.67285,-4.368164 0,-6.039551 l -6.2666,-6.272461 c -1.67383,-1.673339 -4.37598,-1.673339 -6.04785,0 l -5.16309,5.164063 c -0.46093,-0.208496 -0.92578,-0.400391 -1.40332,-0.575684 v -7.315429 c 0,-2.353028 -1.91113,-4.262696 -4.26757,-4.262696 h -8.879399 c -2.358399,0 -4.269532,1.909668 -4.269532,4.262696 v 7.315429 c -0.472656,0.177735 -0.937988,0.367188 -1.402343,0.574707 l -5.163575,-5.163086 c -1.666015,-1.673339 -4.368652,-1.673339 -6.041015,0 l -6.272949,6.272461 c -1.665528,1.671387 -1.665528,4.380371 0,6.039551 l 5.16455,5.164063 c -0.208496,0.458984 -0.398437,0.931152 -0.577148,1.401367 h -7.313477 c -2.353515,0 -4.264648,1.913086 -4.264648,4.276367 v 8.871094 c 0,2.364258 1.91211,4.277344 4.264648,4.277344 h 7.313477 c 0.178711,0.472656 0.368652,0.943359 0.570801,1.396484 l -5.164063,5.167968 c -1.665039,1.66211 -1.665039,4.36914 0.0059,6.04199 l 6.272949,6.27344 c 1.672363,1.67383 4.368164,1.67383 6.041016,0 l 5.164062,-5.16016 c 0.459473,0.20313 0.931152,0.39356 1.401856,0.57129 v 7.31348 c 0,2.35645 1.912597,4.26465 4.270996,4.26465 h 8.875974 c 2.3584,0 4.26953,-1.9082 4.26953,-4.26465 v -7.31348 c 0.47754,-0.17578 0.94239,-0.36816 1.40918,-0.57129 l 5.16309,5.16016 c 1.66601,1.67383 4.36816,1.67383 6.04199,0 l 6.2666,-6.27344 c 1.67774,-1.67285 1.67774,-4.37304 0,-6.04199 z m -27.58691,3.38672 c -10.306642,0 -18.661134,-8.356446 -18.661134,-18.66211 0,-10.307617 8.354492,-18.663574 18.661134,-18.663574 10.30762,0 18.66308,8.355957 18.66308,18.663574 0,10.305664 -8.35546,18.66211 -18.66308,18.66211 z"
         id="path5285"
         style="stroke:none;stroke-opacity:1;fill:#f0e68c;fill-opacity:1" /><circle
         cx="103.26172"
         cy="155.09814"
         r="10.901855"
         id="circle5291"
         style="stroke:none;stroke-opacity:1;fill:#f0e68c;fill-opacity:1" /><path
         d="m 105.99414,138.27148 v -9.48925 c 0,-1.42969 -1.15723,-2.58887 -2.58789,-2.58887 -1.42871,0 -2.58887,1.15918 -2.58887,2.58887 v 9.48925 c 0,1.42969 1.16016,2.58887 2.58887,2.58887 1.43066,0 2.58789,-1.15918 2.58789,-2.58887 z"
         id="path5293"
         style="stroke:none;stroke-opacity:1;stroke-width:2;stroke-dasharray:none;fill:#f0e68c;fill-opacity:1" /><circle
         cx="169.86035"
         cy="88.500244"
         r="10.901123"
         id="circle5295"
         style="stroke:none;stroke-opacity:1;fill:#f0e68c;fill-opacity:1" /><path
         d="m 143.54395,85.766602 c -1.42872,0 -2.5879,1.159179 -2.5879,2.588867 0,1.429687 1.15918,2.58789 2.5879,2.58789 h 9.48925 c 1.42969,0 2.58789,-1.158203 2.58789,-2.58789 0,-1.429688 -1.1582,-2.588867 -2.58789,-2.588867 z"
         id="path5297"
         style="stroke:none;stroke-opacity:1;stroke-width:2;stroke-dasharray:none;fill:#f0e68c;fill-opacity:1" /><circle
         cx="36.664062"
         cy="88.5"
         r="10.901367"
         id="circle5299"
         style="stroke:none;stroke-opacity:1;fill:#f0e68c;fill-opacity:1" /><path
         d="m 62.979981,86.055176 h -9.48877 c -1.429199,0 -2.588867,1.159668 -2.588867,2.589355 0,1.428711 1.159668,2.588867 2.588867,2.588867 h 9.48877 c 1.429687,0 2.588867,-1.160156 2.588867,-2.588867 0,-1.429687 -1.15918,-2.589355 -2.588867,-2.589355 z"
         id="path5301"
         style="stroke:none;stroke-opacity:1;stroke-width:2;stroke-dasharray:none;fill:#f0e68c;fill-opacity:1" /><circle
         cx="56.169922"
         cy="135.59082"
         r="10.900769"
         id="circle5307"
         style="stroke:none;stroke-opacity:1;fill:#f0e68c;fill-opacity:1" /><path
         d="m 73.049805,115.25488 -6.709473,6.71094 c -1.010742,1.00977 -1.010742,2.64844 0,3.66016 0.505371,0.50586 1.16748,0.75879 1.831055,0.75879 0.662109,0 1.324218,-0.25293 1.830078,-0.75879 l 6.708496,-6.70899 c 1.011719,-1.01074 1.011719,-2.65039 0,-3.66211 -1.010254,-1.00976 -2.648926,-1.00976 -3.660156,0 z"
         id="path5309"
         style="stroke:none;stroke-opacity:1;stroke-width:2;stroke-dasharray:none;fill:#f0e68c;fill-opacity:1" /><circle
         cx="150.354"
         cy="135.5918"
         r="10.901805"
         id="circle5311"
         style="stroke:none;stroke-opacity:1;fill:#f0e68c;fill-opacity:1" /><path
         d="m 140.38867,121.76074 -6.70996,-6.70898 c -1.01074,-1.01172 -2.64941,-1.01172 -3.66113,0 -1.00977,1.01074 -1.00977,2.64941 0,3.66113 l 6.70996,6.70899 c 0.50586,0.50488 1.16797,0.75781 1.83105,0.75781 0.66211,0 1.32422,-0.25293 1.83008,-0.75781 1.01074,-1.01075 1.01074,-2.64942 0,-3.66114 z"
         id="path5313"
         style="stroke:none;stroke-opacity:1;stroke-width:2;stroke-dasharray:none;fill:#f0e68c;fill-opacity:1" /></g></g></svg>
